<svg id="svg" version="1.1" width="503" height="479" xmlns="http://www.w3.org/2000/svg" xmlns:xlink="http://www.w3.org/1999/xlink" ><g id="svgg"><path id="path0" d="M164.612 25.064 C 145.586 38.890,129.591 50.627,129.067 51.145 C 128.328 51.876,129.700 57.615,135.185 76.740 C 139.074 90.298,142.008 101.619,141.704 101.896 C 141.401 102.174,135.125 106.787,127.758 112.148 L 114.362 121.895 92.923 107.407 C 78.329 97.546,71.180 93.152,70.533 93.647 C 70.010 94.047,53.926 105.737,34.791 119.625 C 15.656 133.512,0.000 145.350,0.000 145.930 C 0.000 147.409,26.281 228.483,27.018 229.277 C 27.349 229.634,39.074 230.327,53.073 230.818 L 78.527 231.710 83.796 247.730 C 86.694 256.541,89.045 264.078,89.020 264.479 C 88.994 264.881,81.123 271.292,71.527 278.728 C 61.931 286.163,52.845 293.320,51.336 294.632 L 48.593 297.018 62.234 338.966 L 75.875 380.915 120.533 380.915 L 165.191 380.915 173.940 356.859 L 182.689 332.803 200.000 332.803 L 217.311 332.803 226.060 356.859 L 234.809 380.915 279.460 380.915 L 324.112 380.915 337.730 338.966 C 345.447 315.196,351.063 296.673,350.689 296.223 C 350.326 295.785,341.252 288.628,330.526 280.318 C 319.799 272.008,311.003 264.881,310.978 264.479 C 310.954 264.078,313.308 256.535,316.208 247.717 L 321.482 231.683 346.892 230.844 C 360.868 230.382,372.589 229.695,372.940 229.316 C 373.722 228.472,400.000 147.556,400.000 145.991 C 400.000 145.374,384.881 133.861,366.402 120.406 C 347.922 106.951,331.860 95.252,330.706 94.409 L 328.609 92.876 307.162 107.365 L 285.715 121.854 272.281 112.115 C 264.892 106.758,258.599 102.154,258.296 101.884 C 257.992 101.613,260.927 90.298,264.817 76.740 C 271.447 53.632,271.806 52.008,270.538 50.812 C 267.959 48.379,201.684 0.567,200.448 0.247 C 199.734 0.062,184.485 10.622,164.612 25.064 M218.101 51.009 C 227.827 58.070,235.859 63.900,235.949 63.963 C 236.039 64.026,232.888 75.287,228.947 88.987 C 225.006 102.687,221.891 113.984,222.024 114.091 C 226.809 117.955,284.523 159.311,285.129 159.311 C 285.613 159.311,295.348 152.989,306.762 145.262 C 318.177 137.535,327.710 131.213,327.947 131.213 C 329.031 131.213,363.424 156.874,363.455 157.706 C 363.474 158.224,360.536 167.819,356.924 179.028 L 350.359 199.408 342.376 199.889 C 337.986 200.154,326.400 200.608,316.630 200.898 C 299.590 201.405,298.836 201.494,298.136 203.099 C 297.735 204.019,292.383 220.338,286.241 239.364 C 280.100 258.390,274.928 274.393,274.748 274.927 C 274.569 275.461,283.442 282.939,294.467 291.545 C 305.492 300.151,314.658 307.314,314.835 307.464 C 315.012 307.613,312.112 317.133,308.390 328.619 L 301.624 349.503 279.062 349.503 L 256.500 349.503 248.106 326.441 C 243.489 313.757,239.433 302.932,239.093 302.386 C 238.191 300.936,161.809 300.936,160.907 302.386 C 160.567 302.932,156.511 313.757,151.894 326.441 L 143.500 349.503 120.951 349.503 L 98.402 349.503 91.601 328.640 C 87.861 317.166,84.955 307.654,85.144 307.503 C 85.333 307.352,94.508 300.179,105.533 291.563 C 116.558 282.947,125.431 275.460,125.251 274.927 C 125.072 274.393,119.900 258.390,113.759 239.364 C 107.617 220.338,102.265 204.019,101.864 203.099 C 101.164 201.494,100.410 201.405,83.370 200.898 C 73.600 200.608,62.014 200.154,57.624 199.889 L 49.641 199.408 43.076 179.028 C 39.464 167.819,36.526 158.233,36.545 157.725 C 36.573 157.003,67.041 134.235,71.375 131.699 C 71.992 131.338,80.329 136.492,93.233 145.213 C 104.706 152.967,114.480 159.311,114.953 159.311 C 115.561 159.311,175.599 116.253,177.980 114.109 C 178.116 113.987,174.991 102.677,171.037 88.975 C 165.685 70.432,164.097 63.916,164.826 63.487 C 165.364 63.171,173.320 57.375,182.505 50.607 C 191.690 43.839,199.477 38.273,199.811 38.237 C 200.144 38.200,208.375 43.948,218.101 51.009 M189.662 165.945 C 166.588 168.841,147.560 178.138,131.014 194.601 C 122.636 202.937,122.513 200.879,131.952 210.282 L 139.848 218.148 142.039 215.436 C 171.222 179.318,228.778 179.318,257.961 215.436 L 260.152 218.148 268.048 210.282 C 277.487 200.879,277.364 202.937,268.986 194.601 C 247.562 173.285,217.555 162.445,189.662 165.945 M199.784 225.646 L 200.000 240.557 214.911 240.773 L 229.821 240.989 229.821 225.862 L 229.821 210.736 214.694 210.736 L 199.567 210.736 199.784 225.646 " stroke="none" fill="#000000" fill-rule="evenodd"></path></g></svg>