<svg width="400" height="381" viewBox="0 0 400 381" fill="none" xmlns="http://www.w3.org/2000/svg">
<path fill-rule="evenodd" clip-rule="evenodd" d="M164.612 24.8194C145.586 38.6454 129.591 50.3824 129.067 50.9004C128.328 51.6314 129.7 57.3704 135.185 76.4954C139.074 90.0534 142.008 101.374 141.704 101.651C141.401 101.929 135.125 106.542 127.758 111.903L114.362 121.65L92.923 107.162C78.329 97.3014 71.18 92.9074 70.533 93.4024C70.01 93.8024 53.926 105.492 34.791 119.38C15.656 133.267 0 145.105 0 145.685C0 147.164 26.281 228.238 27.018 229.032C27.349 229.389 39.074 230.082 53.073 230.573L78.527 231.465L83.796 247.485C86.694 256.296 89.045 263.833 89.02 264.234C88.994 264.636 81.123 271.047 71.527 278.483C61.931 285.918 52.845 293.075 51.336 294.387L48.593 296.773L62.234 338.721L75.875 380.67H120.533H165.191L173.94 356.614L182.689 332.558H200H217.311L226.06 356.614L234.809 380.67H279.46H324.112L337.73 338.721C345.447 314.951 351.063 296.428 350.689 295.978C350.326 295.54 341.252 288.383 330.526 280.073C319.799 271.763 311.003 264.636 310.978 264.234C310.954 263.833 313.308 256.29 316.208 247.472L321.482 231.438L346.892 230.599C360.868 230.137 372.589 229.45 372.94 229.071C373.722 228.227 400 147.311 400 145.746C400 145.129 384.881 133.616 366.402 120.161C347.922 106.706 331.86 95.0074 330.706 94.1644L328.609 92.6314L307.162 107.12L285.715 121.609L272.281 111.87C264.892 106.513 258.599 101.909 258.296 101.639C257.992 101.368 260.927 90.0534 264.817 76.4954C271.447 53.3874 271.806 51.7634 270.538 50.5674C267.959 48.1344 201.684 0.322393 200.448 0.0023933C199.734 -0.182607 184.485 10.3774 164.612 24.8194ZM218.101 50.7644C227.827 57.8254 235.859 63.6554 235.949 63.7184C236.039 63.7814 232.888 75.0424 228.947 88.7424C225.006 102.442 221.891 113.739 222.024 113.846C226.809 117.71 284.523 159.066 285.129 159.066C285.613 159.066 295.348 152.744 306.762 145.017C318.177 137.29 327.71 130.968 327.947 130.968C329.031 130.968 363.424 156.629 363.455 157.461C363.474 157.979 360.536 167.574 356.924 178.783L350.359 199.163L342.376 199.644C337.986 199.909 326.4 200.363 316.63 200.653C299.59 201.16 298.836 201.249 298.136 202.854C297.735 203.774 292.383 220.093 286.241 239.119C280.1 258.145 274.928 274.148 274.748 274.682C274.569 275.216 283.442 282.694 294.467 291.3C305.492 299.906 314.658 307.069 314.835 307.219C315.012 307.368 312.112 316.888 308.39 328.374L301.624 349.258H279.062H256.5L248.106 326.196C243.489 313.512 239.433 302.687 239.093 302.141C238.191 300.691 161.809 300.691 160.907 302.141C160.567 302.687 156.511 313.512 151.894 326.196L143.5 349.258H120.951H98.402L91.601 328.395C87.861 316.921 84.955 307.409 85.144 307.258C85.333 307.107 94.508 299.934 105.533 291.318C116.558 282.702 125.431 275.215 125.251 274.682C125.072 274.148 119.9 258.145 113.759 239.119C107.617 220.093 102.265 203.774 101.864 202.854C101.164 201.249 100.41 201.16 83.37 200.653C73.6 200.363 62.014 199.909 57.624 199.644L49.641 199.163L43.076 178.783C39.464 167.574 36.526 157.988 36.545 157.48C36.573 156.758 67.041 133.99 71.375 131.454C71.992 131.093 80.329 136.247 93.233 144.968C104.706 152.722 114.48 159.066 114.953 159.066C115.561 159.066 175.599 116.008 177.98 113.864C178.116 113.742 174.991 102.432 171.037 88.7304C165.685 70.1874 164.097 63.6714 164.826 63.2424C165.364 62.9264 173.32 57.1304 182.505 50.3624C191.69 43.5944 199.477 38.0284 199.811 37.9924C200.144 37.9554 208.375 43.7034 218.101 50.7644ZM189.662 165.7C166.588 168.596 147.56 177.893 131.014 194.356C122.636 202.692 122.513 200.634 131.952 210.037L139.848 217.903L142.039 215.191C171.222 179.073 228.778 179.073 257.961 215.191L260.152 217.903L268.048 210.037C277.487 200.634 277.364 202.692 268.986 194.356C247.562 173.04 217.555 162.2 189.662 165.7ZM199.784 225.401L200 240.312L214.911 240.528L229.821 240.744V225.617V210.491H214.694H199.567L199.784 225.401Z" fill="black"/>
</svg>
